<svg width="75" height="42" viewBox="0 0 75 42" fill="none" xmlns="http://www.w3.org/2000/svg">
<g id="Group 968">
<g id="Group 966">
<g id="Group">
<path id="Vector" d="M3.31568 39.2432V36.8034L1.35993 37.3397V39.2432H0V34.0303H1.36098V36.2212L3.31672 35.6787V34.0313H4.6777V39.2442H3.31672L3.31568 39.2432Z" fill="#484A64"/>
<path id="Vector_2" d="M5.26367 39.2432L7.02918 34.0303H8.74242L10.5079 39.2432H9.14799L8.65043 37.785L6.96332 38.2491L6.6236 39.2432H5.26367ZM7.38249 37.0125L8.29817 36.7575L7.88632 35.5345L7.38249 37.0125Z" fill="#484A64"/>
<path id="Vector_3" d="M11.0996 34.0303H12.4606L14.4163 37.1892V34.0303H15.7773V39.2432H14.4163L12.4606 36.0247V39.2432H11.0996V34.0303Z" fill="#484A64"/>
<path id="Vector_4" d="M17.0907 37.5423C17.3217 37.7389 17.5924 37.8977 17.9018 38.02C18.2112 38.1423 18.53 38.2009 18.8572 38.1967C19.0757 38.1925 19.2346 38.1601 19.3349 38.0984C19.4353 38.0368 19.4854 37.9458 19.4854 37.8235C19.4854 37.6793 19.428 37.5643 19.3119 37.4765C19.1969 37.3897 19.0036 37.3092 18.7328 37.235C18.5018 37.1692 18.2645 37.0991 18.0199 37.0218C17.7753 36.9455 17.5537 36.8441 17.353 36.7176C17.1523 36.5911 16.9882 36.4301 16.8597 36.2336C16.7311 36.0371 16.6663 35.7842 16.6663 35.4747C16.6663 35.1998 16.7196 34.9636 16.8262 34.765C16.9328 34.5664 17.0792 34.4033 17.2642 34.2747C17.4492 34.1462 17.6656 34.0521 17.9112 33.9904C18.1579 33.9288 18.4182 33.8984 18.6931 33.8984C18.8844 33.8984 19.0663 33.911 19.2388 33.9382C19.4112 33.9643 19.5806 34.0051 19.7489 34.0594C19.9161 34.1138 20.0823 34.1828 20.2454 34.2653C20.4095 34.3479 20.5778 34.4483 20.7523 34.5664L20.2161 35.6127C20.0071 35.4517 19.776 35.3253 19.5231 35.2333C19.2701 35.1413 19.0046 35.0911 18.7245 35.0828C18.6325 35.0786 18.5468 35.0817 18.4663 35.0922C18.3858 35.1037 18.3147 35.1235 18.2541 35.1517C18.1924 35.18 18.1443 35.2166 18.1067 35.2594C18.0691 35.3023 18.0513 35.3577 18.0513 35.4225C18.0513 35.4873 18.0607 35.5458 18.0806 35.596C18.1004 35.6462 18.1381 35.6932 18.1945 35.7361C18.251 35.7789 18.3325 35.8239 18.4391 35.8667C18.5457 35.9096 18.6889 35.9566 18.8677 36.0037C19.1468 36.0821 19.4091 36.1636 19.6558 36.2483C19.9025 36.3329 20.1168 36.4406 20.2997 36.5692C20.4827 36.6977 20.6269 36.8577 20.7314 37.05C20.836 37.2413 20.8882 37.4838 20.8882 37.7765C20.8882 38.0472 20.836 38.2824 20.7314 38.4831C20.6269 38.6828 20.4806 38.849 20.2935 38.9807C20.1064 39.1113 19.8837 39.2096 19.6266 39.2754C19.3694 39.3402 19.0882 39.3737 18.783 39.3737C18.3471 39.3737 17.9405 39.3078 17.5631 39.1772C17.1858 39.0465 16.8356 38.8657 16.5137 38.6347L17.0886 37.5423H17.0907Z" fill="#484A64"/>
<path id="Vector_5" d="M24.011 39.374C23.688 39.374 23.3859 39.3238 23.1047 39.2235C22.8235 39.1231 22.5758 38.982 22.3625 38.7991C22.1493 38.6151 21.981 38.3946 21.8587 38.1353C21.7364 37.8761 21.6758 37.5845 21.6758 37.2625V34.0315H23.0368V37.1967C23.0368 37.3357 23.0587 37.4674 23.1026 37.5886C23.1465 37.7109 23.2092 37.8176 23.2929 37.9095C23.3754 38.0015 23.4779 38.0747 23.6002 38.1291C23.7225 38.1834 23.8594 38.2106 24.012 38.2106C24.1646 38.2106 24.3016 38.1834 24.4239 38.1291C24.5462 38.0747 24.6496 38.0015 24.7343 37.9095C24.819 37.8176 24.8838 37.712 24.9277 37.5886C24.9716 37.4663 24.9925 37.3357 24.9925 37.1967V34.0315H26.3535V37.2625C26.3535 37.5855 26.2918 37.8761 26.1674 38.1353C26.043 38.3946 25.8747 38.6162 25.6636 38.7991C25.4524 38.982 25.2037 39.1242 24.9183 39.2235C24.6329 39.3238 24.3308 39.374 24.012 39.374H24.011Z" fill="#484A64"/>
<path id="Vector_6" d="M27.2676 34.0303H28.6286L30.5843 37.1892V34.0303H31.9453V39.2432H30.5843L28.6286 36.0247V39.2432H27.2676V34.0303Z" fill="#484A64"/>
<path id="Vector_7" d="M35.3441 38.2481C35.6933 38.2481 35.9786 38.1676 36.2013 38.0067C36.4239 37.8457 36.5567 37.6168 36.6006 37.3199H35.2208V36.1952H37.9678V36.9216C37.9678 37.323 37.8988 37.6763 37.7619 37.9816C37.625 38.2868 37.4368 38.5418 37.1995 38.7467C36.9623 38.9516 36.6842 39.1074 36.3654 39.215C36.0466 39.3216 35.709 39.375 35.3515 39.375C34.9542 39.375 34.5853 39.307 34.2424 39.1722C33.9006 39.0373 33.6027 38.8481 33.3497 38.6067C33.0968 38.3641 32.8971 38.0756 32.7508 37.7401C32.6044 37.4046 32.5312 37.0356 32.5312 36.6342C32.5312 36.2328 32.6044 35.8648 32.7508 35.5293C32.8971 35.1938 33.0978 34.9042 33.3529 34.6628C33.6079 34.4213 33.91 34.2321 34.2591 34.0972C34.6083 33.9624 34.9825 33.8955 35.3839 33.8955C35.9243 33.8955 36.3915 34.0053 36.7835 34.2258C37.1765 34.4464 37.5288 34.7715 37.8434 35.2032L36.9476 35.9558C36.7856 35.6683 36.5734 35.4394 36.31 35.269C36.0466 35.0997 35.7309 35.014 35.365 35.014C35.1685 35.014 34.9814 35.0537 34.8027 35.1321C34.6239 35.2105 34.4682 35.3202 34.3344 35.4624C34.2016 35.6035 34.095 35.7739 34.0135 35.9725C33.933 36.1711 33.8922 36.3927 33.8922 36.6363C33.8922 36.8798 33.9288 37.1025 34.003 37.3C34.0772 37.4986 34.1797 37.669 34.3103 37.8101C34.441 37.9513 34.5947 38.061 34.7713 38.1373C34.948 38.2136 35.1382 38.2513 35.3431 38.2513L35.3441 38.2481Z" fill="#484A64"/>
<path id="Vector_8" d="M40.584 34.0303H41.945V38.1184H44.4369V39.2432H40.584V34.0303Z" fill="#484A64"/>
<path id="Vector_9" d="M46.3844 34.0303V39.2432H45.0234V34.0303H46.3844Z" fill="#484A64"/>
<path id="Vector_10" d="M50.2424 39.2432L48.6598 37.0324V39.2432H47.2988V34.0303H48.6598V35.9923L50.2424 34.0303H51.7403L49.726 36.5285L51.7403 39.2421H50.2424V39.2432Z" fill="#484A64"/>
<path id="Vector_11" d="M56.2614 36.0185V37.1432H53.6911V38.1237H56.4506V39.2422H52.3301V34.0293H56.3848V35.154H53.69V36.0174H56.2604L56.2614 36.0185Z" fill="#484A64"/>
<path id="Vector_12" d="M57.2285 34.0303H58.5895V38.1184H61.0815V39.2432H57.2285V34.0303Z" fill="#484A64"/>
<path id="Vector_13" d="M63.0309 34.0303V39.2432H61.6699V34.0303H63.0309Z" fill="#484A64"/>
<path id="Vector_14" d="M63.8145 36.6269C63.8145 36.2308 63.8876 35.8639 64.034 35.5283C64.1803 35.1928 64.381 34.9032 64.6361 34.6618C64.8911 34.4203 65.1932 34.2311 65.5423 34.0963C65.8915 33.9614 66.2709 33.8945 66.6807 33.8945C67.0904 33.8945 67.4761 33.9625 67.8253 34.0963C68.1744 34.2311 68.4765 34.4203 68.7315 34.6618C68.9866 34.9043 69.1852 35.1928 69.3263 35.5283C69.4674 35.8639 69.5385 36.2308 69.5385 36.6269C69.5385 37.0231 69.4674 37.3963 69.3263 37.7329C69.1841 38.0684 68.9866 38.3579 68.7315 38.6025C68.4765 38.8471 68.1744 39.0363 67.8253 39.1712C67.4761 39.306 67.0946 39.374 66.6807 39.374C66.2667 39.374 65.8915 39.306 65.5423 39.1712C65.1932 39.0363 64.8911 38.8461 64.6361 38.6025C64.381 38.3579 64.1803 38.0684 64.034 37.7329C63.8876 37.3973 63.8145 37.0283 63.8145 36.6269ZM65.1744 36.6269C65.1744 36.8674 65.2099 37.0858 65.282 37.2844C65.3542 37.483 65.4556 37.6534 65.5862 37.7977C65.7169 37.9419 65.8747 38.0538 66.0608 38.1343C66.2458 38.2147 66.4517 38.2555 66.6786 38.2555C66.9054 38.2555 67.1113 38.2147 67.2963 38.1343C67.4814 38.0538 67.6392 37.9419 67.7699 37.7977C67.9005 37.6545 68.0019 37.483 68.074 37.2844C68.1462 37.0858 68.1817 36.8674 68.1817 36.6269C68.1817 36.3865 68.1451 36.1816 68.074 35.9862C68.0019 35.7897 67.9005 35.6203 67.7699 35.4761C67.6392 35.3329 67.4814 35.22 67.2963 35.1395C67.1113 35.059 66.9044 35.0182 66.6786 35.0182C66.4528 35.0182 66.2458 35.059 66.0608 35.1395C65.8758 35.22 65.7169 35.3329 65.5862 35.4761C65.4556 35.6203 65.3542 35.7897 65.282 35.9862C65.2099 36.1816 65.1744 36.3959 65.1744 36.6269Z" fill="#484A64"/>
<path id="Vector_15" d="M70.3223 34.0303H71.6832L73.639 37.1892V34.0303H75V39.2432H73.639L71.6832 36.0247V39.2432H70.3223V34.0303Z" fill="#484A64"/>
</g>
<path id="Vector_16" d="M35.8259 24.8913L31.1587 24.3352C31.028 24.3195 30.9287 24.2118 30.9224 24.0812L30.8984 23.5261C30.7123 19.1651 31.2496 14.8042 32.4883 10.6188L32.7967 9.57768C32.8311 9.46165 32.6723 9.38952 32.6085 9.49196L31.49 11.27C29.4831 14.4613 28.2778 18.0906 27.9768 21.8495L27.6852 25.5007C27.5974 26.5951 28.2967 27.5975 29.3534 27.8944L35.7893 29.7028C35.9545 29.7488 36.1186 29.6254 36.1186 29.4529V25.2195C36.1186 25.0512 35.9932 24.9101 35.8259 24.8902V24.8913Z" fill="#484A64"/>
<path id="Vector_17" d="M32.2229 8.59604L14.9411 5.37025C14.8355 5.35039 14.7414 5.4382 14.7529 5.54482L15.3414 10.8811C15.355 11.0023 15.448 11.0985 15.5693 11.1152L18.9916 11.5939C19.0627 11.6034 19.1149 11.665 19.1139 11.7361C19.0982 12.6372 18.3017 13.325 17.408 13.2079L15.5139 12.9612L15.6487 14.2438L21.0278 14.9138C24.6142 15.3601 28.1808 13.9553 30.4982 11.1821C30.6341 11.0201 30.5411 10.7713 30.333 10.7368L17.6463 8.65771L17.5543 7.36363L31.3553 9.78663C31.4442 9.80231 31.5341 9.76677 31.5895 9.69569L32.293 8.78105C32.3463 8.71206 32.3076 8.61067 32.2219 8.59499L32.2229 8.59604Z" fill="#484A64"/>
<path id="Vector_18" d="M9.28377 4.43577L9.69143 6.33821C9.71025 6.42497 9.63708 6.50441 9.54927 6.49292L8.52593 6.36539C8.45589 6.35703 8.39736 6.30685 8.3775 6.23891L7.75659 4.08142C7.72628 3.97584 7.63847 3.89745 7.53081 3.87759L2.66077 3.00267C2.53952 2.98072 2.44126 3.09779 2.48203 3.21382L5.1998 10.9218C5.63359 12.1521 6.72593 13.0312 8.02001 13.1922L8.98795 13.3124L8.62941 11.9912C8.60433 11.8971 8.68272 11.8082 8.77889 11.8229L11.7434 12.2671C11.8228 12.2786 11.8866 12.3372 11.9043 12.4156L12.0695 13.1117C12.1468 13.4358 12.4134 13.6814 12.7427 13.7305L14.6629 14.0159C14.7193 14.0243 14.7684 13.9772 14.7632 13.9197L13.8517 5.23856C13.8423 5.15076 13.7775 5.07968 13.6907 5.06295L9.4646 4.24971C9.35589 4.22881 9.25973 4.32602 9.28377 4.43473V4.43577Z" fill="#484A64"/>
<path id="Vector_19" d="M37.7556 24.8913L42.4228 24.3352C42.5535 24.3195 42.6528 24.2118 42.6591 24.0812L42.6831 23.5261C42.8692 19.1651 42.3319 14.8042 41.0932 10.6188L40.7848 9.57768C40.7503 9.46165 40.9092 9.38952 40.973 9.49196L42.0915 11.27C44.0984 14.4613 45.3037 18.0906 45.6047 21.8495L45.8963 25.5007C45.9841 26.5951 45.2848 27.5975 44.228 27.8944L37.7922 29.7028C37.627 29.7488 37.4629 29.6254 37.4629 29.4529V25.2195C37.4629 25.0512 37.5883 24.9101 37.7556 24.8902V24.8913Z" fill="#484A64"/>
<path id="Vector_20" d="M41.3601 8.59604L58.6419 5.37025C58.7475 5.35039 58.8416 5.4382 58.8301 5.54482L58.2416 10.8811C58.228 11.0023 58.135 11.0985 58.0137 11.1152L54.5914 11.5939C54.5203 11.6034 54.4681 11.665 54.4691 11.7361C54.4848 12.6372 55.2813 13.325 56.175 13.2079L58.0691 12.9612L57.9343 14.2438L52.5552 14.9138C48.9688 15.3601 45.4022 13.9553 43.0848 11.1821C42.9489 11.0201 43.0419 10.7713 43.25 10.7368L55.9367 8.65771L56.0287 7.36363L42.2277 9.78663C42.1388 9.80231 42.0489 9.76677 41.9935 9.69569L41.29 8.78105C41.2367 8.71206 41.2754 8.61067 41.3611 8.59499L41.3601 8.59604Z" fill="#484A64"/>
<path id="Vector_21" d="M64.2982 4.43577L63.8905 6.33821C63.8717 6.42497 63.9449 6.50441 64.0327 6.49292L65.056 6.36539C65.1261 6.35703 65.1846 6.30685 65.2045 6.23891L65.8254 4.08142C65.8557 3.97584 65.9435 3.89745 66.0511 3.87759L70.9212 3.00267C71.0424 2.98072 71.1407 3.09779 71.0999 3.21382L68.3822 10.9218C67.9484 12.1521 66.856 13.0312 65.5619 13.1922L64.594 13.3124L64.9525 11.9912C64.9776 11.8971 64.8992 11.8082 64.8031 11.8229L61.8386 12.2671C61.7592 12.2786 61.6954 12.3372 61.6776 12.4156L61.5125 13.1117C61.4351 13.4358 61.1686 13.6814 60.8393 13.7305L58.9191 14.0159C58.8626 14.0243 58.8135 13.9772 58.8187 13.9197L59.7302 5.23856C59.7396 5.15076 59.8045 5.07968 59.8912 5.06295L64.1173 4.24971C64.2261 4.22881 64.3222 4.32602 64.2982 4.43473V4.43577Z" fill="#484A64"/>
</g>
</g>
</svg>
