<svg width="37" height="29" viewBox="0 0 37 29" fill="none" xmlns="http://www.w3.org/2000/svg">
<g id="Group 972">
<path id="Vector" d="M36.0392 23.7655L30.9961 23.1618C30.8549 23.1456 30.7472 23.0281 30.7414 22.885L30.7159 22.2825C30.5157 17.5483 31.0957 12.8141 32.4328 8.26952L32.7651 7.1389C32.8022 7.01211 32.6308 6.93534 32.5614 7.04584L31.3527 8.97674C29.1843 12.4419 27.8818 16.3816 27.5565 20.4621L27.2404 24.4262C27.1455 25.6139 27.9015 26.7026 29.043 27.026L35.9975 28.9894C36.1758 29.0394 36.3529 28.9045 36.3529 28.7184V24.1226C36.3529 23.94 36.2175 23.7865 36.0369 23.7655H36.0392Z" fill="white"/>
<path id="Vector_2" d="M32.1473 6.07463L13.4732 2.57227C13.3598 2.55133 13.2579 2.64555 13.2706 2.76187L13.9062 8.55455C13.9201 8.68599 14.022 8.79068 14.1528 8.80929L17.8517 9.32924C17.9281 9.33971 17.9849 9.40601 17.9837 9.48394C17.9675 10.4622 17.1062 11.209 16.1406 11.0822L14.0938 10.8146L14.2396 12.2081L20.0526 12.9351C23.9275 13.4202 27.7816 11.8941 30.2857 8.88374C30.4327 8.70693 30.332 8.43824 30.1074 8.40101L16.3988 6.14326L16.2992 4.73813L31.2119 7.36926C31.308 7.38671 31.4052 7.34833 31.4654 7.27039L32.2261 6.27703C32.284 6.20258 32.2423 6.09208 32.1497 6.07463H32.1473Z" fill="white"/>
<path id="Vector_3" d="M7.36048 1.55797L7.80042 3.62263C7.8201 3.71685 7.74253 3.80292 7.64644 3.79129L6.54081 3.65287C6.4644 3.64357 6.40189 3.5889 6.38105 3.51562L5.71072 1.17295C5.67831 1.05896 5.58337 0.972881 5.46644 0.951944L0.20342 0.00278002C0.0725973 -0.0204838 -0.0339135 0.106304 0.0100801 0.231929L2.94723 8.59992C3.41611 9.93526 4.59583 10.8891 5.99437 11.0647L7.03979 11.1962L6.65311 9.76195C6.62533 9.66075 6.711 9.56421 6.81519 9.57933L10.0186 10.0621C10.1043 10.0748 10.1726 10.1388 10.1923 10.2226L10.3706 10.9786C10.4539 11.3311 10.7422 11.5963 11.0988 11.6498L13.1734 11.9592C13.2348 11.9685 13.288 11.9173 13.2811 11.8557L12.297 2.43036C12.2866 2.33498 12.216 2.25821 12.1234 2.2396L7.5573 1.35673C7.43921 1.33347 7.33617 1.43932 7.36164 1.55797H7.36048Z" fill="white"/>
</g>
</svg>
