<svg width="205" height="36" viewBox="0 0 205 36" fill="none" xmlns="http://www.w3.org/2000/svg">
<g id="Group 963">
<g id="Group">
<path id="Vector" d="M6.65106 33.8017V28.9086L2.72896 29.9843V33.8017H0V23.3459H2.72896V27.7408L6.65106 26.6524V23.3459H9.38002V33.8017H6.65106Z" fill="white"/>
<path id="Vector_2" d="M10.5637 33.8017L14.105 23.3459H17.5416L21.0829 33.8017H18.354L17.3576 30.876L13.9718 31.8057L13.2895 33.8017H10.5605H10.5637ZM14.8127 29.3275L16.6499 28.8166L15.8217 26.3637L14.8127 29.3275Z" fill="white"/>
<path id="Vector_3" d="M22.2656 23.3459H24.9946L28.9167 29.6829V23.3459H31.6456V33.8017H28.9167L24.9946 27.3474V33.8017H22.2656V23.3459Z" fill="white"/>
<path id="Vector_4" d="M34.284 30.3904C34.7472 30.7839 35.2899 31.1044 35.9118 31.3487C36.5338 31.5931 37.1716 31.7105 37.8284 31.7041C38.2663 31.6946 38.5837 31.6312 38.7867 31.5074C38.9898 31.3836 39.0882 31.1996 39.0882 30.9553C39.0882 30.6665 38.9708 30.4349 38.7391 30.2603C38.5075 30.0858 38.1204 29.924 37.5778 29.7748C37.1145 29.6447 36.6385 29.5019 36.1466 29.3464C35.658 29.1941 35.2105 28.991 34.8075 28.7372C34.4045 28.4833 34.0745 28.1597 33.8175 27.7662C33.5605 27.3727 33.4304 26.865 33.4304 26.243C33.4304 25.6909 33.5383 25.2181 33.7509 24.8183C33.9635 24.4184 34.2586 24.0916 34.6298 23.8346C35.0011 23.5775 35.4358 23.3871 35.9277 23.2634C36.4227 23.1396 36.9431 23.0793 37.4952 23.0793C37.8792 23.0793 38.2441 23.1047 38.59 23.1587C38.9359 23.2094 39.2754 23.2919 39.615 23.3998C39.9513 23.5077 40.2845 23.6474 40.6113 23.8124C40.9382 23.9774 41.2777 24.1805 41.6299 24.4153L40.5542 26.5159C40.1354 26.1923 39.6721 25.9384 39.1644 25.7544C38.6566 25.5703 38.1235 25.4688 37.5619 25.4529C37.3778 25.4434 37.2065 25.4529 37.0447 25.4719C36.8828 25.4942 36.74 25.5354 36.6194 25.5894C36.4957 25.6465 36.3973 25.7195 36.3243 25.8051C36.2513 25.8908 36.2133 26.0019 36.2133 26.132C36.2133 26.2621 36.2323 26.3795 36.2736 26.481C36.3116 26.5826 36.391 26.6746 36.502 26.7634C36.6131 26.8523 36.7781 26.938 36.9939 27.0268C37.2097 27.1125 37.4952 27.2077 37.8538 27.3029C38.4123 27.4584 38.9422 27.6234 39.4341 27.7947C39.9291 27.9661 40.3575 28.1787 40.7256 28.4389C41.0937 28.6959 41.3824 29.0196 41.5919 29.4036C41.8013 29.7875 41.906 30.273 41.906 30.8601C41.906 31.4027 41.8013 31.8755 41.5919 32.2785C41.3824 32.6815 41.0905 33.0147 40.7129 33.2749C40.3353 33.5351 39.891 33.735 39.3738 33.8651C38.8566 33.9952 38.2917 34.0618 37.6825 34.0618C36.8067 34.0618 35.9911 33.9317 35.2359 33.6684C34.4807 33.405 33.7762 33.0432 33.1289 32.5799L34.284 30.3904Z" fill="white"/>
<path id="Vector_5" d="M48.1661 34.0653C47.5187 34.0653 46.9127 33.9638 46.3478 33.7639C45.783 33.5639 45.288 33.2783 44.8596 32.9103C44.4312 32.5422 44.0949 32.0979 43.8505 31.5775C43.6062 31.0571 43.4824 30.4732 43.4824 29.8259V23.343H46.2114V29.6926C46.2114 29.9719 46.2558 30.2352 46.3415 30.4796C46.4272 30.7239 46.5541 30.9397 46.7223 31.1237C46.8873 31.3078 47.0935 31.4538 47.3379 31.5648C47.5822 31.6759 47.8583 31.7298 48.1629 31.7298C48.4675 31.7298 48.7436 31.6759 48.9879 31.5648C49.2323 31.4569 49.4417 31.3078 49.6131 31.1237C49.7844 30.9397 49.9114 30.7271 50.0002 30.4796C50.0859 30.2352 50.1303 29.9719 50.1303 29.6926V23.343H52.8593V29.8259C52.8593 30.4732 52.7355 31.0571 52.4848 31.5775C52.2341 32.0979 51.8978 32.5422 51.4757 32.9103C51.0505 33.2783 50.5523 33.5608 49.9812 33.7639C49.4068 33.9669 48.8039 34.0653 48.1629 34.0653H48.1661Z" fill="white"/>
<path id="Vector_6" d="M54.7012 23.3459H57.4301L61.3522 29.6829V23.3459H64.0812V33.8017H61.3522L57.4301 27.3474V33.8017H54.7012V23.3459Z" fill="white"/>
<path id="Vector_7" d="M70.9044 31.8089C71.6057 31.8089 72.1769 31.647 72.6243 31.3234C73.0717 30.9997 73.3383 30.5396 73.424 29.9462H70.6569V27.69H76.1656V29.1465C76.1656 29.9525 76.0292 30.6602 75.7531 31.2726C75.477 31.885 75.1026 32.3959 74.6234 32.8084C74.1475 33.2209 73.589 33.5319 72.9511 33.7477C72.3133 33.9603 71.6343 34.0682 70.9171 34.0682C70.1206 34.0682 69.3781 33.9317 68.6927 33.662C68.0073 33.3923 67.4107 33.0115 66.903 32.526C66.3953 32.0405 65.9955 31.463 65.7035 30.7871C65.4116 30.1144 65.2656 29.375 65.2656 28.569C65.2656 27.763 65.4116 27.0236 65.7035 26.3509C65.9955 25.6782 66.3985 25.0975 66.9094 24.612C67.4202 24.1265 68.0263 23.7489 68.7276 23.476C69.4257 23.2063 70.1778 23.0698 70.9838 23.0698C72.069 23.0698 73.0051 23.292 73.7921 23.733C74.579 24.1741 75.2866 24.8278 75.9181 25.6941L74.1221 27.2013C73.7984 26.6238 73.3732 26.1669 72.8433 25.8242C72.3133 25.4846 71.6819 25.3133 70.9489 25.3133C70.5554 25.3133 70.1778 25.3926 69.8192 25.5481C69.4606 25.7036 69.1465 25.9257 68.8799 26.2113C68.6134 26.4969 68.3976 26.8364 68.2358 27.2331C68.0739 27.6297 67.9946 28.074 67.9946 28.5658C67.9946 29.0577 68.0676 29.4988 68.2167 29.8986C68.3659 30.2984 68.5721 30.6379 68.8323 30.9235C69.0957 31.2091 69.4035 31.4249 69.7589 31.5804C70.1143 31.7327 70.4951 31.8089 70.9076 31.8089H70.9044Z" fill="white"/>
</g>
<g id="Group_2">
<path id="Vector_8" d="M135.478 23.3455H138.207V31.545H143.205V33.8012H135.475V23.3455H135.478Z" fill="white"/>
<path id="Vector_9" d="M147.114 23.3455V33.8012H144.385V23.3455H147.114Z" fill="white"/>
<path id="Vector_10" d="M154.857 33.8012L151.68 29.3682V33.8012H148.951V23.3455H151.68V27.2802L154.857 23.3455H157.862L153.822 28.3591L157.862 33.8044H154.857V33.8012Z" fill="white"/>
<path id="Vector_11" d="M166.928 27.3342V29.5903H161.772V31.5577H167.309V33.8012H159.043V23.3455H167.179V25.6016H161.772V27.3342H166.928Z" fill="white"/>
<path id="Vector_12" d="M168.87 23.3455H171.599V31.545H176.597V33.8012H168.867V23.3455H168.87Z" fill="white"/>
<path id="Vector_13" d="M180.504 23.3455V33.8012H177.775V23.3455H180.504Z" fill="white"/>
<path id="Vector_14" d="M182.084 28.5526C182.084 27.7562 182.23 27.02 182.522 26.3473C182.814 25.6745 183.217 25.0938 183.728 24.6083C184.239 24.1228 184.845 23.7452 185.546 23.4723C186.244 23.2026 187.006 23.0662 187.827 23.0662C188.649 23.0662 189.424 23.2026 190.125 23.4723C190.823 23.7421 191.429 24.1228 191.943 24.6083C192.454 25.0938 192.854 25.6745 193.136 26.3473C193.422 27.02 193.561 27.7562 193.561 28.5526C193.561 29.3491 193.419 30.098 193.136 30.7707C192.851 31.4434 192.454 32.0241 191.943 32.516C191.432 33.0047 190.826 33.3855 190.125 33.6583C189.424 33.9281 188.659 34.0645 187.827 34.0645C186.996 34.0645 186.244 33.9281 185.546 33.6583C184.845 33.3886 184.242 33.0078 183.728 32.516C183.217 32.0273 182.814 31.4434 182.522 30.7707C182.23 30.098 182.084 29.3586 182.084 28.5526ZM184.813 28.5526C184.813 29.035 184.886 29.4729 185.029 29.8727C185.172 30.2725 185.378 30.6152 185.638 30.9008C185.901 31.1896 186.219 31.4149 186.59 31.5767C186.961 31.7386 187.374 31.8211 187.831 31.8211C188.288 31.8211 188.7 31.7386 189.071 31.5767C189.443 31.4149 189.76 31.1896 190.023 30.9008C190.287 30.6121 190.49 30.2694 190.633 29.8727C190.775 29.4761 190.848 29.035 190.848 28.5526C190.848 28.0703 190.775 27.661 190.633 27.2675C190.49 26.874 190.284 26.5313 190.023 26.2425C189.76 25.9538 189.443 25.7285 189.071 25.5667C188.7 25.4048 188.288 25.3255 187.831 25.3255C187.374 25.3255 186.961 25.408 186.59 25.5667C186.219 25.7285 185.901 25.9538 185.638 26.2425C185.375 26.5313 185.172 26.874 185.029 27.2675C184.886 27.661 184.813 28.0894 184.813 28.5526Z" fill="white"/>
<path id="Vector_15" d="M195.139 23.3455H197.868L201.79 29.6824V23.3455H204.519V33.8012H201.79L197.868 27.3469V33.8012H195.139V23.3455Z" fill="white"/>
</g>
<path id="Vector_16" d="M103.919 28.9589L97.7442 28.2227C97.5729 28.2037 97.4396 28.0609 97.4333 27.8864L97.4015 27.1502C97.1572 21.3813 97.868 15.6124 99.5054 10.0751L99.9115 8.69794C99.956 8.54245 99.7465 8.45043 99.6609 8.58371L98.1821 10.9351C95.5262 15.1586 93.9332 19.9597 93.5334 24.9321L93.1462 29.7617C93.032 31.2087 93.9554 32.5351 95.3516 32.9286L103.865 35.3212C104.084 35.3815 104.3 35.2197 104.3 34.9912V29.3905C104.3 29.1683 104.135 28.9811 103.913 28.9557L103.919 28.9589Z" fill="white"/>
<path id="Vector_17" d="M99.1549 7.4036L76.2919 3.13563C76.1522 3.11024 76.0285 3.22448 76.0443 3.36727L76.8218 10.4277C76.8408 10.5863 76.9646 10.7164 77.1232 10.7386L81.6514 11.3733C81.7466 11.386 81.8132 11.4685 81.8132 11.5605C81.7942 12.7536 80.7407 13.6612 79.5571 13.5089L77.0503 13.182L77.228 14.8797L84.3455 15.765C89.0894 16.3552 93.808 14.4957 96.8733 10.8275C97.0542 10.6117 96.9304 10.2849 96.6544 10.2373L79.8712 7.48611L79.7507 5.77257L98.0093 8.97752C98.1267 8.99973 98.2473 8.95213 98.3203 8.85693L99.2501 7.64794C99.3199 7.55592 99.2691 7.42264 99.1549 7.40043V7.4036Z" fill="white"/>
<path id="Vector_18" d="M68.8044 1.89783L69.3438 4.41418C69.3692 4.52842 69.2709 4.63314 69.1566 4.62044L67.8017 4.45226C67.7096 4.43957 67.6303 4.37611 67.6049 4.28408L66.7831 1.42819C66.7418 1.28857 66.6276 1.18385 66.4848 1.15847L60.0432 0.00341673C59.8845 -0.0251422 59.7512 0.130345 59.8052 0.28266L63.4004 10.4782C63.9748 12.1061 65.4186 13.2674 67.1321 13.4801L68.4141 13.6387L67.9413 11.8903C67.9064 11.7665 68.0111 11.6491 68.138 11.6681L72.0601 12.2552C72.1648 12.2711 72.2505 12.3472 72.2727 12.4519L72.4917 13.3722C72.5932 13.8005 72.9454 14.1242 73.3833 14.1909L75.9251 14.5685C76.0012 14.5812 76.0647 14.5177 76.0584 14.4415L74.8525 2.95768C74.8398 2.84027 74.7542 2.74825 74.6399 2.72603L69.0487 1.65031C68.9028 1.62176 68.779 1.75186 68.8076 1.89465L68.8044 1.89783Z" fill="white"/>
<path id="Vector_19" d="M106.475 28.9589L112.65 28.2227C112.821 28.2037 112.954 28.0609 112.961 27.8864L112.992 27.1502C113.237 21.3813 112.526 15.6124 110.888 10.0751L110.482 8.69794C110.438 8.54245 110.647 8.45043 110.733 8.58371L112.212 10.9351C114.868 15.1586 116.461 19.9597 116.86 24.9321L117.248 29.7617C117.362 31.2087 116.438 32.5351 115.042 32.9286L106.528 35.3212C106.31 35.3815 106.094 35.2197 106.094 34.9912V29.3905C106.094 29.1683 106.259 28.9811 106.481 28.9557L106.475 28.9589Z" fill="white"/>
<path id="Vector_20" d="M111.24 7.4036L134.103 3.13563C134.243 3.11024 134.367 3.22448 134.351 3.36727L133.573 10.4277C133.554 10.5863 133.431 10.7164 133.272 10.7386L128.744 11.3733C128.649 11.386 128.582 11.4685 128.582 11.5605C128.601 12.7536 129.655 13.6612 130.838 13.5089L133.345 13.182L133.167 14.8797L126.05 15.765C121.306 16.3552 116.587 14.4957 113.522 10.8275C113.341 10.6117 113.465 10.2849 113.741 10.2373L130.524 7.48611L130.645 5.77257L112.386 8.97752C112.268 8.99973 112.148 8.95213 112.075 8.85693L111.145 7.64794C111.075 7.55592 111.126 7.42264 111.24 7.40043V7.4036Z" fill="white"/>
<path id="Vector_21" d="M141.585 1.89783L141.046 4.41418C141.02 4.52842 141.119 4.63314 141.233 4.62044L142.588 4.45226C142.68 4.43957 142.759 4.37611 142.785 4.28408L143.607 1.42819C143.648 1.28857 143.762 1.18385 143.905 1.15847L150.35 0.00341673C150.508 -0.0251422 150.642 0.130345 150.588 0.28266L146.992 10.4782C146.418 12.1061 144.974 13.2674 143.261 13.4801L141.979 13.6387L142.452 11.8903C142.486 11.7665 142.382 11.6491 142.255 11.6681L138.333 12.2552C138.228 12.2711 138.142 12.3472 138.12 12.4519L137.901 13.3722C137.8 13.8005 137.447 14.1242 137.009 14.1909L134.468 14.5685C134.392 14.5812 134.328 14.5177 134.334 14.4415L135.54 2.95768C135.553 2.84027 135.639 2.74825 135.753 2.72603L141.344 1.65031C141.49 1.62176 141.614 1.75186 141.585 1.89465V1.89783Z" fill="white"/>
</g>
</svg>
