<svg width="48" height="64" viewBox="0 0 48 64" fill="none" xmlns="http://www.w3.org/2000/svg">
<g id="Vector" filter="url(#filter0_d_1_2632)">
<path d="M15.6429 53.2C15.6429 54.74 16.8964 56 18.4286 56H29.5714C31.1036 56 32.3571 54.74 32.3571 53.2V50.4H15.6429V53.2ZM24 0C13.2471 0 4.5 8.792 4.5 19.6C4.5 26.264 7.815 32.116 12.8571 35.672V42C12.8571 43.54 14.1107 44.8 15.6429 44.8H32.3571C33.8893 44.8 35.1429 43.54 35.1429 42V35.672C40.185 32.116 43.5 26.264 43.5 19.6C43.5 8.792 34.7529 0 24 0ZM29.5714 32.76V39.2H18.4286V32.76C14.1943 29.764 10.0714 26.684 10.0714 19.6C10.0714 11.872 16.3114 5.6 24 5.6C31.6886 5.6 37.9286 11.872 37.9286 19.6C37.9286 26.572 33.7221 29.82 29.5714 32.76Z" fill="#FF7710"/>
</g>
<defs>
<filter id="filter0_d_1_2632" x="0.5" y="0" width="47" height="64" filterUnits="userSpaceOnUse" color-interpolation-filters="sRGB">
<feFlood flood-opacity="0" result="BackgroundImageFix"/>
<feColorMatrix in="SourceAlpha" type="matrix" values="0 0 0 0 0 0 0 0 0 0 0 0 0 0 0 0 0 0 127 0" result="hardAlpha"/>
<feOffset dy="4"/>
<feGaussianBlur stdDeviation="2"/>
<feComposite in2="hardAlpha" operator="out"/>
<feColorMatrix type="matrix" values="0 0 0 0 0 0 0 0 0 0 0 0 0 0 0 0 0 0 0.25 0"/>
<feBlend mode="normal" in2="BackgroundImageFix" result="effect1_dropShadow_1_2632"/>
<feBlend mode="normal" in="SourceGraphic" in2="effect1_dropShadow_1_2632" result="shape"/>
</filter>
</defs>
</svg>
