<svg width="24" height="24" viewBox="0 0 24 24" fill="none" xmlns="http://www.w3.org/2000/svg">
<g id="Group 973">
<g id="Group 972">
<path id="Vector" d="M21.6411 17.2926L19.0327 16.9803C18.9596 16.9719 18.9039 16.9111 18.9009 16.8371L18.8878 16.5255C18.7842 14.0767 19.0842 11.628 19.7758 9.27738L19.9477 8.69258C19.9668 8.627 19.8782 8.58729 19.8423 8.64444L19.2171 9.64318C18.0955 11.4355 17.4218 13.4733 17.2536 15.5839L17.0901 17.6343C17.041 18.2486 17.432 18.8117 18.0225 18.979L21.6196 19.9946C21.7118 20.0204 21.8034 19.9506 21.8034 19.8544V17.4773C21.8034 17.3828 21.7334 17.3034 21.64 17.2926H21.6411Z" fill="white"/>
<path id="Vector_2" d="M19.6277 8.14194L9.96863 6.33037C9.90995 6.31954 9.85725 6.36828 9.86384 6.42844L10.1926 9.42466C10.1998 9.49264 10.2525 9.54679 10.3201 9.55642L12.2334 9.82536C12.2729 9.83077 12.3022 9.86507 12.3017 9.90538C12.2933 10.4114 11.8477 10.7976 11.3483 10.732L10.2896 10.5937L10.3651 11.3144L13.3717 11.6905C15.376 11.9414 17.3695 11.152 18.6647 9.59492C18.7408 9.50347 18.6887 9.36449 18.5725 9.34524L11.4819 8.17744L11.4304 7.45064L19.1438 8.81158C19.1935 8.8206 19.2438 8.80075 19.275 8.76044L19.6684 8.24663C19.6983 8.20812 19.6768 8.15097 19.6289 8.14194H19.6277Z" fill="white"/>
<path id="Vector_3" d="M6.80714 5.80584L7.0347 6.87377C7.04488 6.92251 7.00476 6.96703 6.95505 6.96101L6.38318 6.88942C6.34365 6.8846 6.31132 6.85632 6.30054 6.81842L5.95382 5.6067C5.93705 5.54774 5.88795 5.50321 5.82747 5.49238L3.10522 5.00144C3.03755 4.9894 2.98246 5.05498 3.00521 5.11996L4.52443 9.44823C4.76695 10.1389 5.37715 10.6323 6.10053 10.7231L6.64127 10.7911L6.44126 10.0493C6.42689 9.99694 6.4712 9.947 6.5251 9.95482L8.18204 10.2045C8.22636 10.2111 8.26169 10.2442 8.27187 10.2875L8.36409 10.6786C8.4072 10.8609 8.55631 10.9981 8.74075 11.0258L9.81384 11.1858C9.84557 11.1906 9.87312 11.1641 9.86953 11.1323L9.36053 6.25708C9.35514 6.20775 9.31861 6.16804 9.2707 6.15841L6.90894 5.70176C6.84786 5.68973 6.79457 5.74448 6.80774 5.80584H6.80714Z" fill="white"/>
</g>
</g>
</svg>